# xmcd CD database file generated by RipIT.
#
# Track frame offsets:
#	150
#	17352
#	62212
#
# Disc length: 1170 seconds
#
# Revision: 1
# Processed by: cddbd v1.5.1PL2 Copyright (c) Steve Scherf et al.
# Submitted via: RipIT 3.4 www.suwald.com/ripit/ripit.html at Mon Jan 9 11:26:55 CET 2006.
#
DISCID=1b049003
DTITLE=Massive Attack - Special Cases (Single)
DYEAR=2003
DGENRE=Trip-Hop
TTITLE0=Special Cases (Radio Edit)
TTITLE1=Special Cases (Akufen Remix)
TTITLE2=I Against I (Featuring Mos Def)
EXTD=cheers from hans kamp\n
EXTD=ID3G: 27 YEAR: 2003
EXTT0=
EXTT1=
EXTT2=
PLAYORDER=
